<svg width="19" height="29" viewBox="0 0 19 29" fill="none" xmlns="http://www.w3.org/2000/svg">
<path d="M6.23607 5.4518V14.0654C6.23607 15.9718 7.7815 17.5172 9.68787 17.5172C11.5942 17.5172 13.1397 15.9718 13.1397 14.0654V5.4518C13.1397 3.54542 11.5942 2 9.68787 2C7.7815 2 6.23607 3.54542 6.23607 5.4518Z" fill="#747474"/>
<path d="M17.4544 16.2241C15.0566 19.9261 13.1732 21.4351 9.68787 21.3966M1.92133 16.2241C3.84273 19.8498 6.27441 21.3588 9.68787 21.3966M9.68787 21.3966V27M13.1397 14.0654V5.4518C13.1397 3.54542 11.5942 2 9.68787 2V2C7.7815 2 6.23607 3.54542 6.23607 5.4518V14.0654C6.23607 15.9718 7.7815 17.5172 9.68787 17.5172V17.5172C11.5942 17.5172 13.1397 15.9718 13.1397 14.0654Z" stroke="#747474" stroke-width="2.5" stroke-linecap="round"/>
</svg>
