<svg width="22" height="18" viewBox="0 0 22 18" fill="none" xmlns="http://www.w3.org/2000/svg">
<path d="M1.72199 8.30809C1.33986 7.90935 0.706838 7.89588 0.308095 8.27801C-0.0906485 8.66014 -0.104117 9.29316 0.278012 9.69191L1.72199 8.30809ZM8.66667 17L7.94468 17.6919C8.14623 17.9022 8.42947 18.0142 8.72035 17.9986C9.01123 17.9829 9.28084 17.8412 9.45868 17.6105L8.66667 17ZM21.792 1.61051C22.1292 1.17309 22.0479 0.545164 21.6105 0.20799C21.1731 -0.129184 20.5452 -0.047923 20.208 0.389492L21.792 1.61051ZM14.8333 9L14.0413 8.38949L14.0413 8.38949L14.8333 9ZM0.278012 9.69191C1.77502 11.254 3.69169 13.254 5.2341 14.8635C6.00531 15.6682 6.68295 16.3753 7.1678 16.8812C7.41022 17.1342 7.60444 17.3369 7.73805 17.4763C7.80486 17.546 7.85651 17.5999 7.89147 17.6364C7.90895 17.6546 7.92225 17.6685 7.93118 17.6778C7.93565 17.6825 7.93903 17.686 7.94128 17.6884C7.94239 17.6895 7.94328 17.6904 7.94383 17.691C7.94411 17.6913 7.94432 17.6915 7.94447 17.6917C7.94454 17.6918 7.94459 17.6918 7.94463 17.6919C7.94466 17.6919 7.94468 17.6919 8.66667 17C9.38866 16.3081 9.38864 16.3081 9.3886 16.308C9.38857 16.308 9.38851 16.3079 9.38844 16.3079C9.38831 16.3077 9.38808 16.3075 9.3878 16.3072C9.38723 16.3066 9.38639 16.3057 9.38526 16.3045C9.38302 16.3022 9.37961 16.2987 9.37516 16.294C9.36623 16.2847 9.35293 16.2708 9.33545 16.2526C9.30049 16.2161 9.24884 16.1622 9.18203 16.0925C9.04842 15.9531 8.85419 15.7504 8.61177 15.4974C8.12693 14.9915 7.44929 14.2844 6.67808 13.4797C5.13566 11.8702 3.219 9.87019 1.72199 8.30809L0.278012 9.69191ZM9.45868 17.6105L15.6253 9.61051L14.0413 8.38949L7.87466 16.3895L9.45868 17.6105ZM15.6253 9.61051L21.792 1.61051L20.208 0.389492L14.0413 8.38949L15.6253 9.61051Z" fill="black"/>
</svg>
