<svg width="16" height="16" viewBox="0 0 16 16" fill="none" xmlns="http://www.w3.org/2000/svg">
<path d="M13.225 2.28573H12.2329C12.2122 2.28573 12.1938 2.29282 12.1746 2.29748V1.2557C12.1746 0.56325 11.5984 0 10.8901 0H2.28447C1.57615 0 1 0.56325 1 1.2557V12.9665C1 13.659 1.57615 14.2222 2.28448 14.2222H3.79365V14.7892C3.79365 15.4569 4.34773 16 5.02903 16H13.225C13.9063 16 14.4603 15.4569 14.4603 14.7892V3.49653C14.4603 2.82888 13.9063 2.28573 13.225 2.28573ZM1.50792 12.9665V1.2557C1.50792 0.8435 1.8564 0.50795 2.28448 0.50795H10.8901C11.3182 0.50795 11.6667 0.8435 11.6667 1.2557V12.9665C11.6667 13.3787 11.3182 13.7143 10.8901 13.7143H2.28448C1.8564 13.7143 1.50792 13.3787 1.50792 12.9665ZM13.9524 14.7892C13.9524 15.1769 13.626 15.4921 13.225 15.4921H5.02903C4.62797 15.4921 4.30158 15.1769 4.30158 14.7892V14.2222H10.8901C11.5984 14.2222 12.1746 13.659 12.1746 12.9665V2.7819C12.1938 2.78655 12.2122 2.79365 12.2329 2.79365H13.225C13.626 2.79365 13.9524 3.10888 13.9524 3.49653V14.7892Z" fill="white"/>
<path d="M9.38095 3.3016H3.79365C3.65327 3.3016 3.53967 3.41518 3.53967 3.55555C3.53967 3.69595 3.65327 3.80953 3.79365 3.80953H9.38095C9.52132 3.80953 9.63492 3.69595 9.63492 3.55555C9.63492 3.41518 9.52132 3.3016 9.38095 3.3016Z" fill="white"/>
<path d="M9.38095 5.33335H3.79365C3.65327 5.33335 3.53967 5.44692 3.53967 5.5873C3.53967 5.72767 3.65327 5.84127 3.79365 5.84127H9.38095C9.52132 5.84127 9.63492 5.72767 9.63492 5.5873C9.63492 5.44692 9.52132 5.33335 9.38095 5.33335Z" fill="white"/>
<path d="M9.38095 7.36507H3.79365C3.65327 7.36507 3.53967 7.47867 3.53967 7.61905C3.53967 7.75942 3.65327 7.87302 3.79365 7.87302H9.38095C9.52132 7.87302 9.63492 7.75942 9.63492 7.61905C9.63492 7.47867 9.52132 7.36507 9.38095 7.36507Z" fill="white"/>
<path d="M6.84127 9.39682H3.79365C3.65327 9.39682 3.53967 9.51042 3.53967 9.6508C3.53967 9.79117 3.65327 9.90477 3.79365 9.90477H6.84127C6.98165 9.90477 7.09522 9.79117 7.09522 9.6508C7.09522 9.51042 6.98165 9.39682 6.84127 9.39682Z" fill="white"/>
</svg>
