<svg width="16" height="16" viewBox="0 0 16 16" fill="none" xmlns="http://www.w3.org/2000/svg">
<path d="M11.2 16H4.71998C3.39998 16 2.35999 14.92 2.35999 13.64V6.4C2.35999 6.16 2.51999 6 2.75999 6C2.99999 6 3.15999 6.16 3.15999 6.4V13.64C3.15999 14.52 3.87998 15.2 4.71998 15.2H11.2C12.08 15.2 12.76 14.48 12.76 13.64V6.4C12.76 6.16 12.92 6 13.16 6C13.4 6 13.56 6.16 13.56 6.4V13.64C13.56 14.92 12.48 16 11.2 16Z" fill="white"/>
<path d="M13.32 1.96H10.28C10.08 0.84 9.12002 0 7.96002 0C6.80002 0 5.84002 0.84 5.64002 1.96H2.60002C1.68002 1.96 0.960022 2.68 0.960022 3.6C0.960022 4.52 1.68002 5.2 2.60002 5.2H13.36C14.28 5.2 15 4.48 15 3.56C15 2.64 14.24 1.96 13.32 1.96ZM7.96002 0.8C8.68002 0.8 9.28002 1.28 9.44002 1.96H6.44002C6.64002 1.28 7.24002 0.8 7.96002 0.8ZM13.32 4.4H2.60002C2.16002 4.4 1.76002 4.04 1.76002 3.56C1.76002 3.12 2.12002 2.72 2.60002 2.72H13.36C13.8 2.72 14.2 3.08 14.2 3.56C14.16 4.04 13.8 4.4 13.32 4.4Z" fill="white"/>
<path d="M5.16001 14.04C4.92001 14.04 4.76001 13.88 4.76001 13.64V6.96C4.76001 6.72 4.92001 6.56 5.16001 6.56C5.40001 6.56 5.56001 6.72 5.56001 6.96V13.64C5.56001 13.84 5.36001 14.04 5.16001 14.04Z" fill="white"/>
<path d="M10.76 14.04C10.52 14.04 10.36 13.88 10.36 13.64V6.96C10.36 6.72 10.52 6.56 10.76 6.56C11 6.56 11.16 6.72 11.16 6.96V13.64C11.16 13.84 10.96 14.04 10.76 14.04Z" fill="white"/>
<path d="M7.96 14.04C7.72 14.04 7.56 13.88 7.56 13.64V6.96C7.56 6.72 7.72 6.56 7.96 6.56C8.2 6.56 8.36 6.72 8.36 6.96V13.64C8.36 13.84 8.16 14.04 7.96 14.04Z" fill="white"/>
</svg>
