<svg width="26" height="26" viewBox="0 0 26 26" fill="none" xmlns="http://www.w3.org/2000/svg">
<path d="M1 18.2275L12.1341 7.0486L13.4836 5.74076M1 18.2275V25H7.41052M1 18.2275L7.41052 25M7.41052 25L18.5446 14.164L20.2315 12.5133M13.4836 5.74076L16.8576 2.31208L17.5324 2.98934M13.4836 5.74076L20.2315 12.5133M20.2315 12.5133L23.6055 9.08459L22.9307 8.40733M17.5324 2.98934C19.2194 1.97347 19.8942 -0.735561 23.2681 2.65071C26.6421 6.03697 24.2803 6.71423 22.9307 8.40733M17.5324 2.98934L22.9307 8.40733M13.4836 11.1588L6.39833 17.9313" stroke="#646464" stroke-width="1.5" stroke-linecap="round" stroke-linejoin="round"/>
</svg>
