<svg width="56" height="56" viewBox="0 0 56 56" fill="none" xmlns="http://www.w3.org/2000/svg">
<path d="M50.7501 0H5.25004C2.35162 0 0 2.35073 0 5.25004V50.75C0 53.6492 2.35151 56 5.25004 56H50.75C53.6501 56 56 53.6493 56 50.75V5.24993C56 2.35062 53.6502 0 50.7501 0ZM5.25004 3.49995H50.75C51.7155 3.49995 52.4999 4.28513 52.4999 5.24993V41.124H46.6244L40.4244 28.1777C40.1646 27.6342 39.6433 27.2625 39.0435 27.1941C38.4505 27.1291 37.8541 27.3719 37.4781 27.8427L33.4791 32.8594L24.0148 17.4511C23.6815 16.9095 23.0697 16.5966 22.4407 16.6197C21.8033 16.6496 21.2325 17.0248 20.9522 17.5981L9.425 41.124H3.50006V5.24993C3.50006 4.28524 4.28613 3.49995 5.25004 3.49995ZM13.3267 41.1172L22.6971 21.9921L31.8026 36.8165C32.1 37.3027 32.6178 37.612 33.1869 37.6472C33.7662 37.6822 34.3062 37.436 34.6617 36.9917L38.4745 32.2082L42.7418 41.1172H13.3267ZM50.7501 52.4999H5.25004C4.28613 52.4999 3.50006 51.7146 3.50006 50.75V44.6241H52.5V50.75C52.5 51.7146 51.7155 52.4999 50.7501 52.4999ZM40.2535 22.7499C44.1191 22.7499 47.2535 19.6156 47.2535 15.7499C47.2535 11.8841 44.1191 8.74988 40.2535 8.74988C36.3877 8.74988 33.2534 11.8841 33.2534 15.7499C33.2534 19.6157 36.3877 22.7499 40.2535 22.7499ZM40.2535 12.2499C42.1828 12.2499 43.7534 13.8196 43.7534 15.7499C43.7534 17.6802 42.1828 19.2498 40.2535 19.2498C38.3223 19.2498 36.7535 17.68 36.7535 15.7499C36.7535 13.8196 38.3223 12.2499 40.2535 12.2499Z" fill="#6D6D6D"/>
</svg>
