<svg width="29" height="29" viewBox="0 0 29 29" fill="none" xmlns="http://www.w3.org/2000/svg">
<path d="M11.5 11.75C11.5 12.1642 11.1642 12.5 10.75 12.5C10.3358 12.5 10 12.1642 10 11.75C10 11.3358 10.3358 11 10.75 11C11.1642 11 11.5 11.3358 11.5 11.75Z" fill="#747474"/>
<path d="M19.5 11.75C19.5 12.1642 19.1642 12.5 18.75 12.5C18.3358 12.5 18 12.1642 18 11.75C18 11.3358 18.3358 11 18.75 11C19.1642 11 19.5 11.3358 19.5 11.75Z" fill="#747474"/>
<path d="M10.7082 18.4418C10.1336 18.0591 9.3576 18.2147 8.97493 18.7893C8.59226 19.3638 8.74784 20.1399 9.32243 20.5225L10.7082 18.4418ZM19.7082 20.5225C20.2828 20.1399 20.4384 19.3638 20.0557 18.7893C19.673 18.2147 18.897 18.0591 18.3224 18.4418L19.7082 20.5225ZM9.32243 20.5225C10.9857 21.6303 12.7228 22.2306 14.5153 22.2306C16.3079 22.2306 18.0449 21.6303 19.7082 20.5225L18.3224 18.4418C16.9857 19.332 15.7228 19.7306 14.5153 19.7306C13.3079 19.7306 12.0449 19.332 10.7082 18.4418L9.32243 20.5225ZM14.5153 25.7245C8.3075 25.7245 3.26532 20.6917 3.26532 14.4872H0.76532C0.76532 22.0758 6.93011 28.2245 14.5153 28.2245V25.7245ZM25.7653 14.4872C25.7653 20.6917 20.7231 25.7245 14.5153 25.7245V28.2245C22.1005 28.2245 28.2653 22.0758 28.2653 14.4872H25.7653ZM14.5153 3.25C20.7231 3.25 25.7653 8.28275 25.7653 14.4872H28.2653C28.2653 6.89871 22.1005 0.75 14.5153 0.75V3.25ZM14.5153 0.75C6.93011 0.75 0.76532 6.89871 0.76532 14.4872H3.26532C3.26532 8.28275 8.3075 3.25 14.5153 3.25V0.75ZM10.25 11.75C10.25 11.4739 10.4739 11.25 10.75 11.25V13.75C11.8546 13.75 12.75 12.8546 12.75 11.75H10.25ZM10.75 11.25C11.0261 11.25 11.25 11.4739 11.25 11.75H8.75C8.75 12.8546 9.64543 13.75 10.75 13.75V11.25ZM11.25 11.75C11.25 12.0261 11.0261 12.25 10.75 12.25V9.75C9.64543 9.75 8.75 10.6454 8.75 11.75H11.25ZM10.75 12.25C10.4739 12.25 10.25 12.0261 10.25 11.75H12.75C12.75 10.6454 11.8546 9.75 10.75 9.75V12.25ZM18.25 11.75C18.25 11.4739 18.4739 11.25 18.75 11.25V13.75C19.8546 13.75 20.75 12.8546 20.75 11.75H18.25ZM18.75 11.25C19.0261 11.25 19.25 11.4739 19.25 11.75H16.75C16.75 12.8546 17.6454 13.75 18.75 13.75V11.25ZM19.25 11.75C19.25 12.0261 19.0261 12.25 18.75 12.25V9.75C17.6454 9.75 16.75 10.6454 16.75 11.75H19.25ZM18.75 12.25C18.4739 12.25 18.25 12.0261 18.25 11.75H20.75C20.75 10.6454 19.8546 9.75 18.75 9.75V12.25Z" fill="#747474"/>
</svg>
