<svg width="29" height="25" viewBox="0 0 29 25" fill="none" xmlns="http://www.w3.org/2000/svg">
<path d="M11.6627 16C20.3745 16 21.9212 21 21.6055 23.5H1.7198C1.40416 21 2.95083 16 11.6627 16ZM11.6627 16C13.5566 16 17.3444 14.5 17.3444 10.5C17.3444 6.5 14.5036 4.5 11.6627 4.5C8.82177 4.5 5.98111 6.5 5.98111 10.5C5.98111 14.5 9.76871 16 11.6627 16ZM20.8797 20H27.7606C28.0763 17.5 26.5296 12.5 17.8178 12.5C19.7117 12.5 23.4995 11 23.4995 7C23.4995 3 20.6587 1 17.8178 1C14.9769 1 13.4724 3.38115 13.4724 4.77913" stroke="white" stroke-width="2" stroke-linecap="round" stroke-linejoin="round"/>
</svg>
