<svg width="27" height="19" viewBox="0 0 27 19" fill="none" xmlns="http://www.w3.org/2000/svg">
<path d="M8.7909 18L7.79825 18.121C7.85941 18.6228 8.28541 19 8.7909 19V18ZM25.9677 18V19C26.4732 19 26.8992 18.6228 26.9604 18.121L25.9677 18ZM6.31034 6.36842C6.31034 5.81614 5.86263 5.36842 5.31034 5.36842C4.75806 5.36842 4.31034 5.81614 4.31034 6.36842H6.31034ZM4.31034 15.3158C4.31034 15.8681 4.75806 16.3158 5.31034 16.3158C5.86263 16.3158 6.31034 15.8681 6.31034 15.3158H4.31034ZM9.62069 11.8421C10.173 11.8421 10.6207 11.3944 10.6207 10.8421C10.6207 10.2898 10.173 9.8421 9.62069 9.84211L9.62069 11.8421ZM1 9.84211C0.447715 9.84211 -2.18663e-07 10.2898 0 10.8421C2.18664e-07 11.3944 0.447716 11.8421 1 11.8421L1 9.84211ZM8.7909 19H25.9677V17H8.7909V19ZM26.9604 18.121C27.1258 16.7638 26.8051 14.7869 25.3456 13.1422C23.8655 11.4741 21.343 10.2895 17.3793 10.2895V12.2895C20.9407 12.2895 22.8488 13.3417 23.8497 14.4696C24.8713 15.621 25.0823 16.9993 24.9751 17.879L26.9604 18.121ZM17.3793 10.2895C13.4157 10.2895 10.8932 11.4741 9.41298 13.1422C7.95354 14.7869 7.63282 16.7638 7.79825 18.121L9.78355 17.879C9.67633 16.9993 9.88728 15.621 10.9089 14.4696C11.9099 13.3417 13.8179 12.2895 17.3793 12.2895V10.2895ZM17.3793 12.2895C18.4167 12.2895 19.8574 11.8818 21.0546 10.965C22.2911 10.0183 23.287 8.50859 23.287 6.36842H21.287C21.287 7.8072 20.6471 8.75806 19.8387 9.37708C18.9911 10.0261 17.9779 10.2895 17.3793 10.2895V12.2895ZM23.287 6.36842C23.287 4.33736 22.5839 2.72714 21.4505 1.62515C20.3287 0.534376 18.845 0 17.3793 0V2C18.3675 2 19.3377 2.36036 20.0563 3.05906C20.7633 3.74654 21.287 4.82054 21.287 6.36842H23.287ZM17.3793 0C15.9136 0 14.4299 0.534379 13.3082 1.62516C12.1749 2.72716 11.4717 4.33738 11.4717 6.36842H13.4717C13.4717 4.82052 13.9954 3.74652 14.7024 3.05905C15.421 2.36036 16.3911 2 17.3793 2V0ZM11.4717 6.36842C11.4717 8.50858 12.4676 10.0182 13.7041 10.965C14.9013 11.8818 16.3419 12.2895 17.3793 12.2895V10.2895C16.7807 10.2895 15.7676 10.0261 14.92 9.37709C14.1116 8.75808 13.4717 7.80721 13.4717 6.36842H11.4717ZM4.31034 6.36842V15.3158H6.31034V6.36842H4.31034ZM9.62069 9.84211L1 9.84211L1 11.8421L9.62069 11.8421L9.62069 9.84211Z" fill="#FAFAFA"/>
</svg>
