<svg width="29" height="25" viewBox="0 0 29 25" fill="none" xmlns="http://www.w3.org/2000/svg">
<path d="M11.3621 16C20.0739 16 21.6206 21 21.3049 23.5H1.41921C1.10356 21 2.65023 16 11.3621 16ZM11.3621 16C13.256 16 17.0438 14.5 17.0438 10.5C17.0438 6.5 14.203 4.5 11.3621 4.5C8.52117 4.5 5.68052 6.5 5.68052 10.5C5.68052 14.5 9.46811 16 11.3621 16ZM20.5791 20H27.46C27.7757 17.5 26.229 12.5 17.5172 12.5C19.4111 12.5 23.1989 11 23.1989 7C23.1989 3 20.3581 1 17.5172 1C14.6763 1 13.1718 3.38115 13.1718 4.77913" stroke="white" stroke-width="2" stroke-linecap="round" stroke-linejoin="round"/>
</svg>
