<svg width="36" height="25" viewBox="0 0 36 25" fill="none" xmlns="http://www.w3.org/2000/svg">
<path d="M27.8796 20C28.5782 21.2539 28.7248 22.5554 28.6055 23.5H8.71979C8.40414 21 9.95081 16 18.6627 16M27.8796 20C26.7294 17.9354 24.0828 16 18.6627 16M27.8796 20H34.7606C35.0763 17.5 33.5296 12.5 24.8178 12.5C26.7117 12.5 30.4995 11 30.4995 7C30.4995 3 27.6587 1 24.8178 1C21.9769 1 20.4724 3.38115 20.4724 4.77913M18.6627 16C20.5566 16 24.3444 14.5 24.3444 10.5C24.3444 7.36276 22.5969 5.4558 20.4724 4.77913M18.6627 16C16.7687 16 12.9811 14.5 12.9811 10.5C12.9811 6.5 15.8218 4.5 18.6627 4.5C19.2754 4.5 19.8882 4.59304 20.4724 4.77913M8.59361 20H1.77871C1.4661 17.5 2.9979 12.5 11.6261 12.5C9.7503 12.5 5.99893 11 5.99893 7C5.99893 3 8.81246 1 11.6261 1C14.4397 1 15.9297 3.38115 15.9297 4.77913" stroke="white" stroke-width="2" stroke-linecap="round" stroke-linejoin="round"/>
</svg>
