<svg width="57" height="57" viewBox="0 0 57 57" fill="none" xmlns="http://www.w3.org/2000/svg">
<g clip-path="url(#clip0_929_16)">
<path d="M51.2153 0.542953H5.78497C2.89099 0.542953 0.542969 2.89009 0.542969 5.78495V51.2152C0.542969 54.11 2.89088 56.4572 5.78497 56.4572H51.2152C54.1109 56.4572 56.4572 54.1101 56.4572 51.2152V5.78484C56.4572 2.88998 54.111 0.542953 51.2153 0.542953ZM5.78497 4.03755H51.2152C52.1793 4.03755 52.9625 4.82152 52.9625 5.78484V41.604H47.096L40.9055 28.6775C40.6461 28.1349 40.1256 27.7637 39.5267 27.6955C38.9346 27.6306 38.3391 27.8729 37.9637 28.3431L33.9708 33.352L24.521 17.9674C24.1882 17.4265 23.5773 17.1142 22.9493 17.1372C22.3129 17.167 21.743 17.5417 21.4631 18.1141L9.95354 41.604H4.03767V5.78484C4.03767 4.82163 4.82254 4.03755 5.78497 4.03755ZM13.8493 41.5972L23.2053 22.5013L32.2969 37.3031C32.5938 37.7886 33.1108 38.0974 33.679 38.1325C34.2575 38.1674 34.7967 37.9216 35.1516 37.478L38.9585 32.7019L43.2193 41.5972H13.8493ZM51.2153 52.9625H5.78497C4.82254 52.9625 4.03767 52.1784 4.03767 51.2152V45.0987H52.9626V51.2152C52.9626 52.1784 52.1793 52.9625 51.2153 52.9625ZM40.7348 23.258C44.5945 23.258 47.7241 20.1285 47.7241 16.2687C47.7241 12.4089 44.5945 9.27944 40.7348 9.27944C36.8749 9.27944 33.7455 12.4089 33.7455 16.2687C33.7455 20.1286 36.8749 23.258 40.7348 23.258ZM40.7348 12.7741C42.6612 12.7741 44.2294 14.3414 44.2294 16.2687C44.2294 18.196 42.6612 19.7633 40.7348 19.7633C38.8066 19.7633 37.2402 18.1959 37.2402 16.2687C37.2402 14.3414 38.8066 12.7741 40.7348 12.7741Z" fill="#6D6D6D"/>
</g>
<defs>
<clipPath id="clip0_929_16">
<rect width="57" height="57" fill="white"/>
</clipPath>
</defs>
</svg>
