<svg width="208" height="74" viewBox="0 0 208 74" fill="none" xmlns="http://www.w3.org/2000/svg">
<path d="M71.364 29C67.4567 12.6843 52.3876 2.33333 37.3333 2.33333C19.8564 2.33333 2.33333 16.3064 2.33333 37.3334C2.33333 58.3605 19.8564 72.3333 37.3333 72.3333C52.3876 72.3333 67.4567 61.9823 71.364 45.6667L154 45.6667H162.333V50.6667V60.4167C162.333 61.4752 163.191 62.3333 164.25 62.3333H170.417C171.475 62.3333 172.333 61.4752 172.333 60.4167V52.3333H185.667V60.6167C185.667 61.5648 186.435 62.3333 187.383 62.3333H193.95C194.898 62.3333 195.667 61.5648 195.667 60.6167V50.6667V45.6667H197.333H203.5C204.697 45.6667 205.667 44.6966 205.667 43.5V31.1667C205.667 29.97 204.697 29 203.5 29H71.364Z" stroke="#464646" stroke-width="3.33333"/>
<circle cx="37.333" cy="37.3333" r="21.6667" stroke="#464646" stroke-width="3.33333"/>
</svg>
