<svg width="21" height="20" viewBox="0 0 21 20" fill="none" xmlns="http://www.w3.org/2000/svg">
<path d="M19.7209 16.9121L16.2022 13.4005L14.944 12.1447C14.5191 11.7207 13.8276 11.7205 13.4025 12.1447L13.2483 12.2986L12.7172 11.7685C13.7578 10.5233 14.3849 8.92235 14.3849 7.1779C14.3848 3.22 11.1583 0 7.19235 0C3.22643 0 0 3.22 0 7.1779C0 11.1358 3.22643 14.3558 7.19235 14.3558C8.94033 14.3558 10.5445 13.73 11.7922 12.6915L12.3234 13.2216L12.1692 13.3755C11.7443 13.7996 11.7443 14.4897 12.1693 14.9138L16.9462 19.6811C17.3721 20.1062 18.0617 20.1063 18.4877 19.6812L19.7209 18.4504C20.1459 18.0263 20.1459 17.3363 19.7209 16.9121ZM7.19235 13.0504C3.94768 13.0504 1.30795 10.416 1.30795 7.1779C1.30795 3.93977 3.94768 1.30535 7.19235 1.30535C10.437 1.30535 13.0768 3.93977 13.0768 7.1779C13.0768 10.416 10.437 13.0504 7.19235 13.0504ZM13.2483 14.1447L14.1732 13.2217L13.7223 13.6716L13.2483 14.1447ZM17.717 18.6043L13.2483 14.1447L13.7223 13.6716L14.1732 13.2217L18.6418 17.6813L17.717 18.6043Z" fill="#747474"/>
</svg>
