<svg width="29" height="34" viewBox="0 0 29 34" fill="none" xmlns="http://www.w3.org/2000/svg">
<path d="M25.1826 23.4089V22.7022V16.3414C25.1826 11.214 21.6422 6.89063 16.8694 5.68972L15.6636 5.38634L16.2185 4.27368C16.3697 3.97031 16.455 3.62993 16.455 3.26835C16.455 2.01973 15.4359 1 14.1822 1C12.9285 1 11.9094 2.01974 11.9094 3.26828C11.9094 3.62986 11.9947 3.97025 12.146 4.27361L12.7008 5.38627L11.4951 5.68966C6.72225 6.89057 3.18186 11.214 3.18186 16.3414V22.7021V23.4088L2.51571 23.6448C1.63062 23.9582 1 24.8016 1 25.783C1 27.0315 2.01916 28.0513 3.27283 28.0513H8.8373H9.65386L9.81711 28.8514C10.2307 30.8783 12.0324 32.4091 14.1822 32.4091C16.332 32.4091 18.1337 30.8783 18.5474 28.8514L18.7107 28.0514H19.5272H25.0917C26.3453 28.0514 27.3645 27.0316 27.3645 25.7831L25.1826 23.4089ZM25.1826 23.4089L25.8487 23.6448M25.1826 23.4089L25.8487 23.6448M25.8487 23.6448C26.7338 23.9583 27.3644 24.8017 27.3645 25.7831L25.8487 23.6448ZM11.097 28.0441H9.68071L10.1547 29.3788C10.7408 31.029 12.3193 32.2303 14.1822 32.2303C16.0452 32.2303 17.6236 31.029 18.2098 29.3788L18.6839 28.0441H17.2674H11.097ZM3.36373 22.5147V23.5147H4.36373H5.45476C5.50631 23.5147 5.54572 23.5561 5.54572 23.6042C5.54572 23.6522 5.50629 23.6936 5.45476 23.6936H3.27283C2.1203 23.6936 1.18186 24.6288 1.18186 25.7831C1.18186 26.9374 2.12031 27.8725 3.27283 27.8725H25.0917C26.2441 27.8725 27.1826 26.9374 27.1826 25.7831C27.1826 24.6288 26.2442 23.6936 25.0917 23.6936H22.9088C22.8573 23.6936 22.8179 23.6523 22.8179 23.6042C22.8179 23.5561 22.8573 23.5147 22.9088 23.5147H24.0007H25.0007V22.5147V16.3413C25.0007 10.3813 20.1471 5.53644 14.1822 5.53644C8.21732 5.53644 3.36373 10.3813 3.36373 16.3413V22.5147ZM16.2732 3.26828C16.2732 2.11398 15.3347 1.17883 14.1822 1.17883C13.0297 1.17883 12.0912 2.11398 12.0912 3.26828C12.0912 4.42259 13.0297 5.35773 14.1822 5.35773C15.3347 5.35773 16.2732 4.42259 16.2732 3.26828Z" stroke="white" stroke-width="2"/>
</svg>
