<svg width="38" height="24" viewBox="0 0 38 24" fill="none" xmlns="http://www.w3.org/2000/svg">
<path d="M23.9514 17.1597L24.0388 17.0879L24.1145 17.0039C25.5214 15.4421 26.5188 13.8897 26.5082 12.082C26.4978 10.309 25.5141 8.70837 24.1622 7.0516L24.0643 6.93164L23.9439 6.8342C22.372 5.56136 20.8214 4.58575 19.0634 4.54739C17.2709 4.50827 15.6784 5.44478 14.0246 6.86042L13.93 6.94139L13.85 7.03684C12.5127 8.63359 11.5116 10.2045 11.4885 11.9827C11.4651 13.787 12.4485 15.3704 13.8737 16.9906L13.9589 17.0876L14.0595 17.1685C15.7132 18.4995 17.2767 19.4622 19.0327 19.4593C20.7932 19.4564 22.3368 18.4842 23.9514 17.1597ZM18.998 7.54667C19.6591 7.5611 20.4971 7.92085 21.9353 9.06864C23.1535 10.5834 23.5044 11.4521 23.5082 12.0996C23.5118 12.7169 23.1974 13.5215 21.9607 14.9121C20.4569 16.133 19.6476 16.4583 19.0278 16.4593C18.4049 16.4603 17.5784 16.135 16.0417 14.9124C14.7921 13.4714 14.4802 12.6415 14.4883 12.0216C14.4966 11.3758 14.8528 10.5299 16.07 9.05909C17.5242 7.83187 18.3667 7.5329 18.998 7.54667ZM1.69048 11.9613C5.2782 5.00792 12.3454 1.49997 19.3125 1.49997C26.282 1.49998 32.9428 4.99941 35.8374 11.8775C31.5653 19.0299 24.9834 22.5 18.5625 22.5C12.1632 22.5 5.72797 19.0546 1.69048 11.9613Z" stroke="#575757" stroke-width="3"/>
</svg>
