<svg width="26" height="26" viewBox="0 0 26 26" fill="none" xmlns="http://www.w3.org/2000/svg">
<path d="M8.69893 7.28481C8.30395 6.8988 7.67082 6.90608 7.28481 7.30107C6.8988 7.69605 6.90608 8.32918 7.30107 8.71519L8.69893 7.28481ZM17.3011 18.4879C17.6961 18.8739 18.3292 18.8666 18.7152 18.4717C19.1012 18.0767 19.0939 17.4436 18.6989 17.0575L17.3011 18.4879ZM7.51209 17.3011C7.12608 17.6961 7.13335 18.3292 7.52834 18.7152C7.92333 19.1012 8.55645 19.0939 8.94246 18.6989L7.51209 17.3011ZM18.7152 8.69893C19.1012 8.30395 19.0939 7.67082 18.6989 7.28481C18.3039 6.8988 17.6708 6.90608 17.2848 7.30107L18.7152 8.69893ZM24 13C24 19.0751 19.0751 24 13 24V26C20.1797 26 26 20.1797 26 13H24ZM13 24C6.92487 24 2 19.0751 2 13H0C0 20.1797 5.8203 26 13 26V24ZM2 13C2 6.92487 6.92487 2 13 2V0C5.8203 0 0 5.8203 0 13H2ZM13 2C19.0751 2 24 6.92487 24 13H26C26 5.8203 20.1797 0 13 0V2ZM7.30107 8.71519L12.416 13.7139L13.8139 12.2835L8.69893 7.28481L7.30107 8.71519ZM12.416 13.7139L17.3011 18.4879L18.6989 17.0575L13.8139 12.2835L12.416 13.7139ZM8.94246 18.6989L13.8301 13.6976L12.3997 12.2997L7.51209 17.3011L8.94246 18.6989ZM13.8301 13.6976L18.7152 8.69893L17.2848 7.30107L12.3997 12.2997L13.8301 13.6976Z" fill="white"/>
</svg>
