<svg width="26" height="26" viewBox="0 0 26 26" fill="none" xmlns="http://www.w3.org/2000/svg">
<path d="M25 13C25 19.6274 19.6274 25 13 25C6.37258 25 1 19.6274 1 13C1 6.37258 6.37258 1 13 1C19.6274 1 25 6.37258 25 13Z" fill="black"/>
<path d="M7.71218 12.9647C7.32447 12.5713 6.69132 12.5668 6.298 12.9545C5.90468 13.3422 5.90012 13.9753 6.28782 14.3687L7.71218 12.9647ZM11.6 18.3333L10.8878 19.0353C11.0889 19.2393 11.3678 19.3473 11.6539 19.3319C11.9399 19.3164 12.2056 19.1791 12.3836 18.9546L11.6 18.3333ZM19.7836 9.62128C20.1267 9.18851 20.054 8.55953 19.6213 8.21641C19.1885 7.87329 18.5595 7.94596 18.2164 8.37872L19.7836 9.62128ZM24 13C24 19.0751 19.0751 24 13 24V26C20.1797 26 26 20.1797 26 13H24ZM13 24C6.92487 24 2 19.0751 2 13H0C0 20.1797 5.8203 26 13 26V24ZM2 13C2 6.92487 6.92487 2 13 2V0C5.8203 0 0 5.8203 0 13H2ZM13 2C19.0751 2 24 6.92487 24 13H26C26 5.8203 20.1797 0 13 0V2ZM6.28782 14.3687L10.8878 19.0353L12.3122 17.6313L7.71218 12.9647L6.28782 14.3687ZM12.3836 18.9546L19.7836 9.62128L18.2164 8.37872L10.8164 17.7121L12.3836 18.9546Z" fill="white"/>
</svg>
