<svg width="22" height="22" viewBox="0 0 22 22" fill="none" xmlns="http://www.w3.org/2000/svg">
<path d="M0.322042 1.98163C0.0282706 1.68786 -0.0887514 1.32859 0.20502 1.03481L1.03481 0.20502C1.32858 -0.0887509 1.68786 0.0282711 1.98163 0.322042L21.6626 20.0031C21.9564 20.2968 22.0734 20.6561 21.7797 20.9499L20.9499 21.7797C20.6561 22.0734 20.2968 21.9564 20.0031 21.6626L0.322042 1.98163Z" fill="#747474"/>
<path d="M20.152 0.236935C20.4458 -0.0568363 20.6561 -0.0887516 20.9499 0.205019L21.7797 1.03481C22.0734 1.32858 22.0734 1.57084 21.7797 1.86461L1.86461 21.7797C1.57084 22.0734 1.32858 22.0734 1.03481 21.7797L0.20502 20.9499C-0.0887514 20.6561 -0.0568364 20.4458 0.236935 20.152L20.152 0.236935Z" fill="#747474"/>
</svg>
