<svg width="24" height="24" viewBox="0 0 24 24" fill="none" xmlns="http://www.w3.org/2000/svg">
<path d="M1.302 2.99905C1.0016 2.69865 0.881935 2.33126 1.18234 2.03086L2.03087 1.18233C2.33127 0.881926 2.69866 1.00159 2.99906 1.30199L23.1244 21.4273C23.4248 21.7277 23.5445 22.0951 23.2441 22.3955L22.3955 23.2441C22.0951 23.5445 21.7278 23.4248 21.4273 23.1244L1.302 2.99905Z" fill="#5F5D5D"/>
<path d="M21.5796 1.21497C21.8801 0.914563 22.0951 0.881926 22.3955 1.18233L23.2441 2.03086C23.5445 2.33126 23.5445 2.57898 23.2441 2.87939L2.87939 23.2441C2.57899 23.5445 2.33127 23.5445 2.03087 23.2441L1.18234 22.3955C0.881935 22.0951 0.91457 21.88 1.21497 21.5796L21.5796 1.21497Z" fill="#5F5D5D"/>
</svg>
